<svg xmlns="http://www.w3.org/2000/svg" viewBox="0 0 128 128" role="img" aria-labelledby="title">
  <title id="title">FocusFlow</title>
  <defs>
    <linearGradient id="drop" x1="28" y1="9" x2="103" y2="122" gradientUnits="userSpaceOnUse">
      <stop stop-color="#67f3ff"/>
      <stop offset=".46" stop-color="#20d4ee"/>
      <stop offset="1" stop-color="#2563eb"/>
    </linearGradient>
    <radialGradient id="clockBg" cx="60" cy="72" r="42" gradientUnits="userSpaceOnUse">
      <stop stop-color="#123574"/>
      <stop offset="1" stop-color="#06142b"/>
    </radialGradient>
    <filter id="softGlow" x="-25%" y="-25%" width="150%" height="150%">
      <feGaussianBlur stdDeviation="2.4" result="blur"/>
      <feMerge>
        <feMergeNode in="blur"/>
        <feMergeNode in="SourceGraphic"/>
      </feMerge>
    </filter>
  </defs>
  <path d="M64 7c16.5 32 39 57.4 39 82.8 0 23-17.2 38.2-39 38.2S25 112.8 25 89.8C25 64.4 47.5 39 64 7Z" fill="url(#drop)" filter="url(#softGlow)"/>
  <path d="M64 27c12.2 23.2 29 41.6 29 61.4 0 17.8-12.5 29.6-29 29.6S35 106.2 35 88.4C35 68.6 51.8 50.2 64 27Z" fill="#061226" opacity=".94"/>
  <path d="M58 51h12M64 51v10" stroke="#7cf7ff" stroke-width="6" stroke-linecap="round"/>
  <circle cx="64" cy="84" r="30" fill="url(#clockBg)" stroke="#061226" stroke-width="5"/>
  <circle cx="64" cy="84" r="25" fill="none" stroke="#4eeaff" stroke-width="4.5"/>
  <path d="M64 65v5M64 98v5M45 84h5M78 84h5" stroke="#7cf7ff" stroke-width="4" stroke-linecap="round" opacity=".9"/>
  <path d="M64 84V70M64 84l14 9" stroke="#7cf7ff" stroke-width="5.5" stroke-linecap="round" stroke-linejoin="round"/>
  <circle cx="64" cy="84" r="4.8" fill="#7cf7ff"/>
</svg>
